{
  "accessors": [
    {
      "bufferView": 2,
      "componentType": 5126,
      "count": 65532,
      "max": [
        37.566658020019531,
        2.3356904983520508,
        22.09503173828125
      ],
      "min": [
        -1.7742328643798828,
        -10.945844650268555,
        -15.284357070922852
      ],
      "type": "VEC3"
    },
    {
      "bufferView": 2,
      "byteOffset": 786384,
      "componentType": 5126,
      "count": 65532,
      "max": [
        0.99991929531097412,
        0.99967670440673828,
        0.99897098541259766
      ],
      "min": [
        -0.99997931718826294,
        -0.99999743700027466,
        -0.99999535083770752
      ],
      "type": "VEC3"
    },
    {
      "bufferView": 3,
      "componentType": 5126,
      "count": 65532,
      "max": [
        0.99997717142105103,
        0.99999868869781494,
        0.99843549728393555,
        1
      ],
      "min": [
        -0.99981778860092163,
        -0.99999964237213135,
        -0.99991673231124878,
        -1
      ],
      "type": "VEC4"
    },
    {
      "bufferView": 1,
      "componentType": 5126,
      "count": 65532,
      "max": [
        0.99877899885177612,
        0.9821779727935791
      ],
      "min": [
        0.00024399999529123306,
        0.0012209999840706587
      ],
      "type": "VEC2"
    },
    {
      "bufferView": 0,
      "componentType": 5125,
      "count": 206844,
      "max": [
        65531
      ],
      "min": [
        0
      ],
      "type": "SCALAR"
    },
    {
      "bufferView": 2,
      "byteOffset": 1572768,
      "componentType": 5126,
      "count": 65532,
      "max": [
        36.85205078125,
        2.174522876739502,
        23.921154022216797
      ],
      "min": [
        -1.8596363067626953,
        -10.40373706817627,
        -15.651700973510742
      ],
      "type": "VEC3"
    },
    {
      "bufferView": 2,
      "byteOffset": 2359152,
      "componentType": 5126,
      "count": 65532,
      "max": [
        0.99990326166152954,
        0.99918460845947266,
        0.99999183416366577
      ],
      "min": [
        -0.99998754262924194,
        -0.9999968409538269,
        -0.99999535083770752
      ],
      "type": "VEC3"
    },
    {
      "bufferView": 3,
      "byteOffset": 1048512,
      "componentType": 5126,
      "count": 65532,
      "max": [
        0.99997943639755249,
        0.99999654293060303,
        0.99845069646835327,
        1
      ],
      "min": [
        -0.99949949979782104,
        -0.99999874830245972,
        -0.99967724084854126,
        -1
      ],
      "type": "VEC4"
    },
    {
      "bufferView": 1,
      "byteOffset": 524256,
      "componentType": 5126,
      "count": 65532,
      "max": [
        0.99877899885177612,
        0.98071300983428955
      ],
      "min": [
        0.00024399999529123306,
        0.0012209999840706587
      ],
      "type": "VEC2"
    },
    {
      "bufferView": 0,
      "byteOffset": 827376,
      "componentType": 5125,
      "count": 188487,
      "max": [
        65531
      ],
      "min": [
        0
      ],
      "type": "SCALAR"
    },
    {
      "bufferView": 2,
      "byteOffset": 3145536,
      "componentType": 5126,
      "count": 24836,
      "max": [
        36.777183532714844,
        2.3251285552978516,
        23.818294525146484
      ],
      "min": [
        2.1119346618652344,
        -10.945844650268555,
        -15.406440734863281
      ],
      "type": "VEC3"
    },
    {
      "bufferView": 2,
      "byteOffset": 3443568,
      "componentType": 5126,
      "count": 24836,
      "max": [
        0.99920552968978882,
        0.99973183870315552,
        0.9998592734336853
      ],
      "min": [
        -0.99951738119125366,
        -0.99996167421340942,
        -0.99993926286697388
      ],
      "type": "VEC3"
    },
    {
      "bufferView": 3,
      "byteOffset": 2097024,
      "componentType": 5126,
      "count": 24836,
      "max": [
        0.99997329711914062,
        0.99998694658279419,
        0.99245637655258179,
        1
      ],
      "min": [
        -0.9999879002571106,
        -0.99998706579208374,
        -0.99993723630905151,
        -1
      ],
      "type": "VEC4"
    },
    {
      "bufferView": 1,
      "byteOffset": 1048512,
      "componentType": 5126,
      "count": 24836,
      "max": [
        0.99877899885177612,
        0.98071300983428955
      ],
      "min": [
        0.00024399999529123306,
        0.0012209999840706587
      ],
      "type": "VEC2"
    },
    {
      "bufferView": 0,
      "byteOffset": 1581324,
      "componentType": 5125,
      "count": 62799,
      "max": [
        24835
      ],
      "min": [
        0
      ],
      "type": "SCALAR"
    },
    {
      "bufferView": 2,
      "byteOffset": 3741600,
      "componentType": 5126,
      "count": 542,
      "max": [
        23.341835021972656,
        23.340253829956055,
        1.0647737979888916
      ],
      "min": [
        -23.335515975952148,
        -23.340255737304688,
        0
      ],
      "type": "VEC3"
    },
    {
      "bufferView": 2,
      "byteOffset": 3748104,
      "componentType": 5126,
      "count": 542,
      "max": [
        0.99083012342453003,
        0.99076324701309204,
        1
      ],
      "min": [
        -0.99056202173233032,
        -0.99076312780380249,
        -1
      ],
      "type": "VEC3"
    },
    {
      "bufferView": 3,
      "byteOffset": 2494400,
      "componentType": 5126,
      "count": 542,
      "max": [
        0.99993348121643066,
        0.99999946355819702,
        0.0031160053331404924,
        1
      ],
      "min": [
        -0.99993348121643066,
        -0.99973207712173462,
        -0.0031160055659711361,
        1
      ],
      "type": "VEC4"
    },
    {
      "bufferView": 1,
      "byteOffset": 1247200,
      "componentType": 5126,
      "count": 542,
      "max": [
        1.016011118888855,
        1
      ],
      "min": [
        -0.016455842182040215,
        0
      ],
      "type": "VEC2"
    },
    {
      "bufferView": 0,
      "byteOffset": 1832520,
      "componentType": 5125,
      "count": 1608,
      "max": [
        541
      ],
      "min": [
        0
      ],
      "type": "SCALAR"
    }
  ],
  "asset": {
    "extras": {
      "author": "Siavash Razavi (https://sketchfab.com/sia7ash)",
      "license": "CC-BY-4.0 (http://creativecommons.org/licenses/by/4.0/)",
      "source": "https://sketchfab.com/3d-models/strawberry-cake-90b03e4e1ce24f5592bbfbb15b41c442",
      "title": "strawberry Cake"
    },
    "generator": "Sketchfab-4.93.0",
    "version": "2.0"
  },
  "bufferViews": [
    {
      "buffer": 0,
      "byteLength": 1838952,
      "byteOffset": 0,
      "name": "floatBufferViews",
      "target": 34963
    },
    {
      "buffer": 0,
      "byteLength": 1251536,
      "byteOffset": 1838952,
      "byteStride": 8,
      "name": "floatBufferViews",
      "target": 34962
    },
    {
      "buffer": 0,
      "byteLength": 3754608,
      "byteOffset": 3090488,
      "byteStride": 12,
      "name": "floatBufferViews",
      "target": 34962
    },
    {
      "buffer": 0,
      "byteLength": 2503072,
      "byteOffset": 6845096,
      "byteStride": 16,
      "name": "floatBufferViews",
      "target": 34962
    }
  ],
  "buffers": [
    {
      "byteLength": 9348168,
      "uri": "scene.bin"
    }
  ],
  "extensionsUsed": [
    "KHR_materials_unlit"
  ],
  "images": [
    {
      "uri": "textures/Material_37_baseColor.jpeg"
    }
  ],
  "materials": [
    {
      "doubleSided": true,
      "extensions": {
        "KHR_materials_unlit": {}
      },
      "name": "Cone001__0",
      "pbrMetallicRoughness": {
        "baseColorFactor": [
          1,
          1,
          1,
          1
        ],
        "metallicFactor": 0,
        "roughnessFactor": 1
      }
    },
    {
      "doubleSided": true,
      "extensions": {
        "KHR_materials_unlit": {}
      },
      "name": "Material_37",
      "pbrMetallicRoughness": {
        "baseColorFactor": [
          1,
          1,
          1,
          1
        ],
        "baseColorTexture": {
          "index": 0,
          "texCoord": 0
        },
        "metallicFactor": 0,
        "roughnessFactor": 1
      }
    }
  ],
  "meshes": [
    {
      "name": "default001_Material #37_0",
      "primitives": [
        {
          "attributes": {
            "NORMAL": 1,
            "POSITION": 0,
            "TANGENT": 2,
            "TEXCOORD_0": 3
          },
          "indices": 4,
          "material": 1,
          "mode": 4
        }
      ]
    },
    {
      "name": "default001_Material #37_0",
      "primitives": [
        {
          "attributes": {
            "NORMAL": 6,
            "POSITION": 5,
            "TANGENT": 7,
            "TEXCOORD_0": 8
          },
          "indices": 9,
          "material": 1,
          "mode": 4
        }
      ]
    },
    {
      "name": "default001_Material #37_0",
      "primitives": [
        {
          "attributes": {
            "NORMAL": 11,
            "POSITION": 10,
            "TANGENT": 12,
            "TEXCOORD_0": 13
          },
          "indices": 14,
          "material": 1,
          "mode": 4
        }
      ]
    },
    {
      "name": "Cone001__0",
      "primitives": [
        {
          "attributes": {
            "NORMAL": 16,
            "POSITION": 15,
            "TANGENT": 17,
            "TEXCOORD_0": 18
          },
          "indices": 19,
          "material": 0,
          "mode": 4
        }
      ]
    }
  ],
  "nodes": [
    {
      "children": [
        1
      ],
      "name": "RootNode (gltf orientation matrix)",
      "rotation": [
        -0.70710678118654746,
        -0,
        -0,
        0.70710678118654757
      ]
    },
    {
      "children": [
        2
      ],
      "name": "RootNode (model correction matrix)"
    },
    {
      "children": [
        3
      ],
      "matrix": [
        1,
        0,
        0,
        0,
        0,
        0,
        1,
        0,
        0,
        -1,
        0,
        0,
        0,
        0,
        0,
        1
      ],
      "name": "4.FBX"
    },
    {
      "children": [
        4,
        9
      ],
      "name": "RootNode"
    },
    {
      "children": [
        5
      ],
      "matrix": [
        0.99924659951934369,
        0.038809835997381303,
        -0.00017314411563776859,
        0,
        0.038809880757409029,
        -0.99920914930811633,
        0.0086526929072084108,
        0,
        0.00016280240817034196,
        -0.0086528936666948972,
        -0.99996254976202437,
        0,
        -1.9886322021484375,
        6.512570858001709,
        -0.61551642417907715,
        1
      ],
      "name": "default001"
    },
    {
      "children": [
        6,
        7,
        8
      ],
      "matrix": [
        1,
        0,
        -0,
        0,
        0,
        1,
        0,
        0,
        0,
        0,
        1,
        0,
        -17.863283157348633,
        4.8999524116516113,
        -4.1007919311523438,
        1
      ],
      "name": ""
    },
    {
      "mesh": 0,
      "name": "default001_Material #37_0"
    },
    {
      "mesh": 1,
      "name": "default001_Material #37_0"
    },
    {
      "mesh": 2,
      "name": "default001_Material #37_0"
    },
    {
      "children": [
        10
      ],
      "matrix": [
        0.92816001176834106,
        0,
        0,
        0,
        0,
        2.060929231203137e-16,
        -0.92816001176834106,
        0,
        0,
        0.92816001176834106,
        2.060929231203137e-16,
        0,
        -1.4920550584793091,
        -0.61078429222106934,
        -0.55701828002929688,
        1
      ],
      "name": "Cone001"
    },
    {
      "mesh": 3,
      "name": "Cone001__0"
    }
  ],
  "samplers": [
    {
      "magFilter": 9729,
      "minFilter": 9987,
      "wrapS": 10497,
      "wrapT": 10497
    }
  ],
  "scene": 0,
  "scenes": [
    {
      "name": "OSG_Scene",
      "nodes": [
        0
      ]
    }
  ],
  "textures": [
    {
      "sampler": 0,
      "source": 0
    }
  ]
}

